<svg id="Merged_correct_" data-name="Merged (correct)" xmlns="http://www.w3.org/2000/svg" viewBox="0 0 1124 164"><title>Viable Lab - Logotype - v0.1</title><g id="Registered_trademark" data-name="Registered trademark"><path d="M1265,320a4,4,0,1,1-2.85,1.18A4,4,0,0,1,1265,320m0-1a5,5,0,1,0,5,5,5,5,0,0,0-5-5Z" transform="translate(-200 -319)"/><path d="M1266.05,326.58l-1.13-1.93H1264v1.93h-.9v-5.16h2.26a1.58,1.58,0,0,1,1.7,1.62,1.45,1.45,0,0,1-1.23,1.51l1.27,2Zm.09-3.55a.8.8,0,0,0-.88-.81H1264v1.64h1.25A.82.82,0,0,0,1266.14,323Z" transform="translate(-200 -319)"/></g><circle id="_." data-name="." cx="1106" cy="142" r="18"/><path id="b" d="M1215,373a54.71,54.71,0,0,0-31,9.57V319h-36V479h36v-5.57A55,55,0,1,0,1215,373Zm-6,80a25,25,0,1,1,25-25A25,25,0,0,1,1209,453Z" transform="translate(-200 -319)"/><path id="a" d="M1094,377v5.57a55,55,0,1,0,0,90.86V479h36V377Zm-25,76a25,25,0,1,1,25-25A25,25,0,0,1,1069,453Z" transform="translate(-200 -319)"/><rect id="l" x="954" y="319" width="36" height="160" transform="translate(1744 479) rotate(-180)"/><path id="e" d="M820,373h-8a52.15,52.15,0,0,0-52,52v6a52.15,52.15,0,0,0,52,52h8a52.18,52.18,0,0,0,48.76-34H833.55A18,18,0,0,1,818,458h-4a18.05,18.05,0,0,1-18-18v-5h75.83c.1-1.32.17-2.65.17-4v-6A52.15,52.15,0,0,0,820,373Zm-6,25h4a18,18,0,0,1,18,17h-39.9A18,18,0,0,1,814,398Z" transform="translate(-200 -319)"/><rect id="l-2" data-name="l" x="706" y="319" width="36" height="160" transform="translate(1248 479) rotate(-180)"/><path id="b-2" data-name="b" d="M633,373a54.71,54.71,0,0,0-31,9.57V319H566V479h36v-5.57A55,55,0,1,0,633,373Zm-6,80a25,25,0,1,1,25-25A25,25,0,0,1,627,453Z" transform="translate(-200 -319)"/><path id="a-2" data-name="a" d="M508,377v5.57a55,55,0,1,0,0,90.86V479h36V377Zm-25,76a25,25,0,1,1,25-25A25,25,0,0,1,483,453Z" transform="translate(-200 -319)"/><g id="i"><rect x="168" y="58" width="36" height="102"/><circle cx="186" cy="19" r="18"/></g><polygon id="V" points="120 10 80 110 40 10 0 10 60 160 100 160 160 10 120 10"/></svg>